PathFileType	4	(X/Y/Z)	D:\Research_projects\MuscleProsody\BulkSports2Dtrack\RetrackedSports2D\p1_sample60_cam3\p1_sample60_cam3_Sports2D\p1_sample60_cam3_Sports2D_px_person00.trc
DataRate	CameraRate	NumFrames	NumMarkers	Units	OrigDataRate	OrigDataStartFrame	OrigNumFrames
60	60	8	22	m	60	585	780
Frame#	Time	Hip			RHip			RKnee			RAnkle			RBigToe			RSmallToe			RHeel			LHip			LKnee			LAnkle			LBigToe			LSmallToe			LHeel			Neck			Head			Nose			RShoulder			RElbow			RWrist			LShoulder			LElbow			LWrist		
		X1	Y1	Z1	X2	Y2	Z2	X3	Y3	Z3	X4	Y4	Z4	X5	Y5	Z5	X6	Y6	Z6	X7	Y7	Z7	X8	Y8	Z8	X9	Y9	Z9	X10	Y10	Z10	X11	Y11	Z11	X12	Y12	Z12	X13	Y13	Z13	X14	Y14	Z14	X15	Y15	Z15	X16	Y16	Z16	X17	Y17	Z17	X18	Y18	Z18	X19	Y19	Z19	X20	Y20	Z20	X21	Y21	Z21	X22	Y22	Z22
585	9.75	232.27939056245313	553.049312625502	0.0	208.421679826671	557.491127035164	0.0	207.63573745950941	675.2979453520717	0.0	219.6870702029326	773.0039719099149	0.0	183.1391660411116	808.9372979462016	0.0	180.3661605046862	799.4949445053772	0.0	230.6177209591599	789.111605063807	0.0	256.7532801901951	561.4967576196455	0.0	251.5305982778152	682.2165684894508	0.0	255.71777424974115	793.3792230320635	0.0	219.45024836687318	830.0144975932808	0.0	239.63798950275222	833.5713898710137	0.0	267.1634714909737	808.6059202160809	0.0	235.72915249083815	360.0668866054332	0.0	211.38536680056583	273.7605129161191	0.0	187.27644037465546	324.7373559996212	0.0	202.83480949345852	391.2983968429481	0.0	177.1702087077919	467.25383763358224	0.0	161.6831721177476	460.7649818270721	0.0	282.6921791598414	391.3776601999397	0.0	257.31053404232443	482.00536814708835	0.0	168.85806220219615	502.14066680553594	0.0
586	9.766666666666666	232.16029074772254	553.084510109906	0.0	208.37293324317022	557.7124101410508	0.0	207.56445054902298	675.3410110358036	0.0	219.754624535467	772.9662791882447	0.0	183.1454260219533	808.8365516156193	0.0	180.42551906592723	799.4698445358626	0.0	230.62893728919911	789.082914531507	0.0	256.5654181774321	561.6822136085766	0.0	251.50039871521437	682.2722128547405	0.0	255.62475620551672	793.4385387865539	0.0	219.3155234570843	830.0867927130523	0.0	239.48652228150715	833.6091202321367	0.0	266.9883581611035	808.7077549245766	0.0	235.70838175067775	360.0719851430767	0.0	211.31244807106665	273.8742699225626	0.0	187.04534719842178	324.79694385971834	0.0	202.96488069426715	391.2451915068732	0.0	177.67853731498093	467.429001658222	0.0	160.99076793381062	460.5456110129324	0.0	282.6119363849909	391.3858496561903	0.0	259.07235685221406	482.15476400092047	0.0	171.46372574326958	502.6127077435573	0.0
587	9.783333333333333	231.98572103072155	553.1623785695302	0.0	208.27962956701026	557.8955849846953	0.0	207.494663929668	675.3214027479202	0.0	219.80508374770588	772.9510393140032	0.0	183.1016686251468	808.7701209570951	0.0	180.42223192237572	799.5084063790114	0.0	230.6642691143572	789.0613383617397	0.0	256.343145944806	561.839025718347	0.0	251.46318001290655	682.2933688845909	0.0	255.54163077100648	793.4848242583023	0.0	219.24914809624053	830.1238145013225	0.0	239.39120816967107	833.6343853032042	0.0	266.8168553122073	808.7640514049671	0.0	235.64444980621792	360.06285415711034	0.0	211.1635265718608	273.95200772930286	0.0	186.86245172748409	324.86097935015124	0.0	203.04854470558843	391.2836042585968	0.0	178.1549987363795	467.59599253412057	0.0	158.83817451768908	460.1208487134266	0.0	282.52835739791254	391.33416794167624	0.0	261.6716549226985	482.21999038639126	0.0	175.40051259296868	503.25440229713786	0.0
588	9.8	231.76145193279137	553.2879872976778	0.0	208.1484683914428	558.0523954980017	0.0	207.4461437124963	675.2518016513617	0.0	219.83777023627485	772.9687057291522	0.0	183.0087281831107	808.7330870403738	0.0	180.36354015869316	799.5994477964784	0.0	230.72590489534576	789.053017174598	0.0	256.08629922389446	561.9791997062264	0.0	251.4183625117113	682.2955206029662	0.0	255.47265939866725	793.5158750307361	0.0	219.23510349664633	830.1247331151586	0.0	239.33870152869198	833.6488007025476	0.0	266.66616441876977	808.7784552920407	0.0	235.5416738069864	360.0444541280543	0.0	210.9532928364267	273.993467100508	0.0	186.73561915402746	324.92704313022443	0.0	203.0889676102383	391.3987751266582	0.0	178.55274643000152	467.7127066194517	0.0	155.33411370237155	459.5689937096625	0.0	282.436466988367	391.2253848804166	0.0	264.99264094154563	482.15036609504745	0.0	180.70626382411584	503.989851505435	0.0
589	9.816666666666666	231.49388003810103	553.4604674480623	0.0	207.9877001926324	558.1929248025676	0.0	207.43066519955133	675.1480688887657	0.0	219.8494820753523	773.0264062067943	0.0	182.87663440259976	808.7177344336515	0.0	180.26532321164163	799.7276084120195	0.0	230.80990263394168	789.0626184552326	0.0	255.79700982916603	562.1098348270604	0.0	251.35905023533584	682.2935438517073	0.0	255.42791164060972	793.5297523471359	0.0	219.25393586799066	830.0932056289115	0.0	239.31066426316664	833.6584207314277	0.0	266.5563321686143	808.7612085285393	0.0	235.40461044705083	360.0169384692516	0.0	210.698439029327	273.99554543506264	0.0	186.6628318905986	324.98573367565234	0.0	203.0870222393434	391.57302835890164	0.0	178.8318198198251	467.75325413257207	0.0	150.6740709008611	458.9897864584902	0.0	282.3361332913677	391.0582038894552	0.0	268.8940864619224	481.8910451599436	0.0	187.43182068595817	504.699339420443	0.0
590	9.833333333333334	231.1905952394036	553.6728721710637	0.0	207.80810558656174	558.3261960254445	0.0	207.44894219252257	675.0266919171506	0.0	219.83894662403478	773.1208791097504	0.0	182.72406566244723	808.7197210822042	0.0	180.14758694454278	799.8782283451625	0.0	230.91181151002084	789.088031690504	0.0	255.48390091887347	562.2360545464528	0.0	251.275932449057	682.3027429355859	0.0	255.42122613483784	793.5266191218066	0.0	219.29915836027632	830.03709803586	0.0	239.29811142081954	833.6711517800042	0.0	266.5111467938299	808.7214831306577	0.0	235.23848949741628	359.97822243933086	0.0	210.41690494425688	273.95371056567825	0.0	186.63416246322686	325.0255396461382	0.0	203.03913518874367	391.79262914350215	0.0	178.9750264989171	467.7249331227555	0.0	145.1261707796751	458.47343401972597	0.0	282.2293169991257	390.8322561388417	0.0	273.22051585887897	481.39709951875363	0.0	195.60739746328989	505.2425125147972	0.0
591	9.85	230.86155151464004	553.9129980864074	0.0	207.6216781900979	558.462320627243	0.0	207.4964699458985	674.9073909103764	0.0	219.8127471890008	773.240126845371	0.0	182.57673440792453	808.7354443082628	0.0	180.03178836343213	800.0343947539442	0.0	231.03151726322258	789.1242662382483	0.0	255.1591529648142	562.3664729465944	0.0	251.16641443836627	682.3404445945938	0.0	255.46050599485514	793.5061604305791	0.0	219.37277581209287	829.967705132116	0.0	239.2998912613587	833.6923238364245	0.0	266.5458164107501	808.6639645828513	0.0	235.0480092784187	359.92953536660536	0.0	210.12782557050286	273.87202898534105	0.0	186.62861453246794	325.0386802094099	0.0	202.94015007832718	392.0470474690428	0.0	178.99345621850128	467.65221480317445	0.0	139.01460736422356	458.08000817262234	0.0	282.11736488821384	390.5525157592317	0.0	277.8068489712242	480.6429118073178	0.0	205.20401074937783	505.48559603999036	0.0
592	9.866666666666667	230.51923334090677	554.1619418408382	0.0	207.43867537728988	558.6050276442919	0.0	207.56776546059362	674.8121676637381	0.0	219.78472555286254	773.368770538585	0.0	182.46117111690307	808.757078615854	0.0	179.93684901297885	800.1748386066018	0.0	231.17135045221042	789.1677167029624	0.0	254.83419550922554	562.5091193648575	0.0	251.03883838740958	682.4202306011451	0.0	255.53913030572886	793.4665138223604	0.0	219.47350294215315	829.8977287021086	0.0	239.31538746659552	833.7230303098447	0.0	266.6553235560542	808.5908593324759	0.0	234.83501346514922	359.8784972649743	0.0	209.84648063145926	273.7669827121846	0.0	186.61632197162672	325.0250069205304	0.0	202.7856514544694	392.32462487718146	0.0	178.92132323826044	467.555631277115	0.0	132.69829875791729	457.8366465433451	0.0	282.0013140196498	390.2311561770859	0.0	282.4795851684859	479.6249474271155	0.0	216.09724443391158	505.3289831352571	0.0
